<?xml version="1.0" encoding="UTF-8" standalone="no"?>
<!-- Created with Inkscape (http://www.inkscape.org/) -->

<svg
   width="297mm"
   height="210mm"
   viewBox="0 0 297 210"
   version="1.1"
   id="svg5"
   inkscape:version="1.1 (c68e22c387, 2021-05-23)"
   sodipodi:docname="cmti_logo.svg"
   xmlns:inkscape="http://www.inkscape.org/namespaces/inkscape"
   xmlns:sodipodi="http://sodipodi.sourceforge.net/DTD/sodipodi-0.dtd"
   xmlns="http://www.w3.org/2000/svg"
   xmlns:svg="http://www.w3.org/2000/svg">
  <sodipodi:namedview
     id="namedview7"
     pagecolor="#ffffff"
     bordercolor="#666666"
     borderopacity="1.0"
     inkscape:pageshadow="2"
     inkscape:pageopacity="0.0"
     inkscape:pagecheckerboard="0"
     inkscape:document-units="mm"
     showgrid="false"
     inkscape:zoom="0.74118967"
     inkscape:cx="509.31632"
     inkscape:cy="375.74727"
     inkscape:window-width="1920"
     inkscape:window-height="1017"
     inkscape:window-x="-8"
     inkscape:window-y="-8"
     inkscape:window-maximized="1"
     inkscape:current-layer="layer1" />
  <defs
     id="defs2">
    <style
       id="style9">
            .cls-1{fill:#0171b6;}
        </style>
  </defs>
  <g
     inkscape:label="Layer 1"
     inkscape:groupmode="layer"
     id="layer1">
    <g
       id="g38"
       transform="matrix(0.26458333,0,0,0.26458333,82.602589,71.46974)"
       inkscape:export-filename="D:\PS-CMTI\cmti_logo.png"
       inkscape:export-xdpi="300"
       inkscape:export-ydpi="300">
      <path
         class="cls-1"
         d="m 550.64,246.13 c -0.87,2.34 -1.74,4.47 -2.46,6.66 -1,3.13 -1.9,6.31 -2.94,9.43 -1.36,4.09 -2.83,8.16 -4.24,12.24 a 9.27,9.27 0 0 1 -0.67,1.92 c -0.17,0.29 -0.78,0.43 -1.19,0.43 q -13.2,0 -26.39,0 c -1.08,0 -2.17,-0.06 -3.24,0 a 1.48,1.48 0 0 0 -1.09,0.65 c -1.33,3.82 -2.6,7.67 -3.87,11.51 -1.14,3.48 -2.24,7 -3.4,10.44 -1.39,4.17 -2.85,8.32 -4.24,12.49 -1.12,3.36 -2.16,6.75 -3.28,10.11 -1.44,4.32 -3.06,8.6 -4.35,13 -1,3.23 0.77,6.54 4.62,6.55 7.84,0 15.68,0 23.52,0 1.24,0 1.31,0.18 0.9,1.36 -1,2.8 -1.85,5.64 -2.82,8.44 -0.57,1.66 -1.28,3.28 -1.86,4.94 -0.58,1.66 -1,3.11 -1.48,4.65 -0.76,2.29 -1.6,4.56 -2.36,6.85 a 36.38,36.38 0 0 0 -1,3.58 1,1 0 0 1 -1.12,0.91 c -1.68,0 -3.36,0 -5,0 q -27.12,0 -54.23,0 a 14.24,14.24 0 0 1 -4.17,-0.58 6.77,6.77 0 0 1 -3.8,-3.43 c -1.6,-2.76 -0.88,-5.26 0,-7.9 0.88,-2.64 1.7,-5.32 2.59,-8 0.89,-2.68 1.79,-5.18 2.66,-7.77 0.87,-2.59 1.72,-5.32 2.61,-8 1.05,-3.12 2.15,-6.22 3.2,-9.34 0.87,-2.56 1.69,-5.15 2.55,-7.72 0.73,-2.21 1.5,-4.4 2.24,-6.61 0.74,-2.21 1.37,-4.29 2.09,-6.43 1.37,-4.1 2.76,-8.19 4.14,-12.28 1.18,-3.55 2.33,-7.12 3.53,-10.66 1.55,-4.58 3.15,-9.15 4.69,-13.73 1.18,-3.52 2.29,-7.07 3.47,-10.59 1.38,-4.16 2.82,-8.29 4.2,-12.44 1,-3.09 2,-6.21 3,-9.3 1.38,-4.12 2.83,-8.22 4.21,-12.34 1.18,-3.54 2.29,-7.1 3.46,-10.64 1.17,-3.54 2.42,-7.06 3.57,-10.6 a 1.13,1.13 0 0 1 1.29,-0.92 h 1 37 c 1.21,0 1.35,0.14 1,1.29 q -2.43,7.38 -4.88,14.77 -1.9,5.7 -3.83,11.38 c -1.4,4.12 -2.82,8.23 -4.22,12.35 -0.3,0.88 -0.57,1.78 -0.79,2.69 0,0.15 0.24,0.46 0.43,0.54 a 2.55,2.55 0 0 0 0.83,0 h 30.23 z"
         transform="translate(-189.32,-203.09)"
         id="path13" />
      <path
         class="cls-1"
         d="m 267.77,341.59 c -1.08,3.11 -2.15,6.1 -3.16,9.11 -0.88,2.64 -1.66,5.32 -2.54,8 -0.88,2.68 -1.81,5.18 -2.69,7.78 -0.57,1.67 -1.05,3.37 -1.65,5 a 1.4,1.4 0 0 1 -0.9,0.8 20.85,20.85 0 0 1 -2.74,0.08 h -55.31 c -1.79,0 -3.61,0.1 -5.2,-0.92 a 11.62,11.62 0 0 1 -1.53,-1.37 6.07,6.07 0 0 0 -0.7,-0.73 4.71,4.71 0 0 1 -1.95,-5 45.26,45.26 0 0 1 1.84,-6.7 c 1.33,-4.18 2.73,-8.34 4.12,-12.5 1.39,-4.16 2.83,-8.21 4.21,-12.33 1.19,-3.57 2.29,-7.16 3.48,-10.73 1.38,-4.12 2.83,-8.21 4.21,-12.33 1.19,-3.57 2.28,-7.16 3.47,-10.73 1.37,-4.08 2.81,-8.14 4.18,-12.22 1.19,-3.52 2.31,-7.07 3.48,-10.6 1.17,-3.53 2.33,-7.06 3.51,-10.58 1.18,-3.52 2.37,-7.22 3.68,-10.78 1.21,-3.29 3.17,-6.11 6.52,-7.49 a 15.45,15.45 0 0 1 5.6,-1.2 c 20.23,-0.08 40.47,-0.05 60.71,-0.05 0.63,0 1.3,-0.34 0.8,1 -1.33,3.51 -2.35,7.15 -3.54,10.73 -1.05,3.16 -2.18,6.29 -3.22,9.45 q -1.33,4 -2.55,8.09 a 1.74,1.74 0 0 1 -2,1.48 c -8.28,-0.07 -16.56,-0.06 -24.84,0 a 6.79,6.79 0 0 0 -3.43,0.58 6.2,6.2 0 0 0 -2.29,2.92 c -1.54,4.2 -2.88,8.47 -4.28,12.71 -1.17,3.52 -2.32,7 -3.48,10.56 q -1.93,5.86 -3.88,11.73 c -0.93,2.82 -1.86,5.64 -2.84,8.45 -0.75,2.14 -1.57,4.26 -2.36,6.38 a 18.41,18.41 0 0 0 -1.48,4.06 c -0.25,2.17 -0.63,4.59 1.47,6.17 a 5.59,5.59 0 0 0 3.07,1.12 c 7.63,0.1 15.27,0.06 22.91,0.06 z"
         transform="translate(-189.32,-203.09)"
         id="path15" />
      <path
         class="cls-1"
         d="M 280.74,407.65 H 262 c -1.34,0 -1.39,0 -1,-1.29 1.26,-3.81 2.55,-7.6 3.79,-11.41 1,-3.19 2,-6.4 3.05,-9.58 0.54,-1.64 1.28,-3.21 1.84,-4.84 0.56,-1.63 0.94,-3.28 1.48,-4.89 0.74,-2.18 1.59,-4.33 2.33,-6.51 0.55,-1.65 1,-3.35 1.51,-5 0.74,-2.19 1.59,-4.33 2.33,-6.52 0.55,-1.65 1,-3.35 1.51,-5 0.74,-2.18 1.59,-4.33 2.33,-6.51 0.55,-1.61 1,-3.27 1.51,-4.89 0.74,-2.22 1.58,-4.41 2.33,-6.62 0.54,-1.62 1,-3.28 1.51,-4.89 0.74,-2.22 1.59,-4.41 2.33,-6.63 0.55,-1.65 1,-3.36 1.51,-5 0.74,-2.18 1.59,-4.31 2.33,-6.49 0.55,-1.65 1,-3.35 1.51,-5 0.74,-2.18 1.58,-4.32 2.32,-6.5 0.54,-1.57 1,-3.18 1.51,-4.76 0.77,-2.29 1.6,-4.56 2.37,-6.85 0.52,-1.54 0.95,-3.11 1.47,-4.65 0.77,-2.29 1.6,-4.56 2.36,-6.85 0.53,-1.58 1,-3.19 1.48,-4.77 0.76,-2.25 1.62,-4.47 2.35,-6.73 0.73,-2.26 1.28,-4.38 2,-6.55 0.53,-1.61 1.24,-3.16 1.78,-4.77 0.54,-1.61 1.06,-3.41 1.57,-5.11 0.19,-0.62 0.18,-1.42 0.58,-1.81 a 3.42,3.42 0 0 1 2.07,-1.05 c 12,-0.06 23.92,0 35.88,0 h 0.84 c 2,0 2,0 1.36,1.85 -1.23,3.53 -2.5,7 -3.67,10.59 -1.37,4.13 -2.63,8.3 -4,12.43 -1.17,3.54 -2.48,7 -3.66,10.57 -1.06,3.17 -2,6.38 -3,9.54 -1.51,4.5 -3.12,9 -4.63,13.46 -1.05,3.12 -2,6.29 -3,9.42 -1,3.13 -2.09,6.17 -3.13,9.26 q -1.8,5.42 -3.59,10.83 c -0.86,2.56 -1.76,5.11 -2.61,7.67 -1.07,3.21 -2.09,6.43 -3.15,9.64 -0.85,2.57 -1.72,5.14 -2.58,7.71 l -3.18,9.48 c -0.86,2.56 -1.74,5.11 -2.59,7.68 -1.07,3.24 -2.09,6.51 -3.18,9.74 -1.19,3.54 -2.46,7 -3.65,10.58 -0.9,2.68 -1.72,5.38 -2.57,8.08 -0.19,0.6 -0.4,1.19 -0.6,1.79 a 1.54,1.54 0 0 1 -1.74,1.17 c -6.28,-0.06 -12.56,0 -18.84,0 z"
         transform="translate(-189.32,-203.09)"
         id="path17" />
      <path
         class="cls-1"
         d="m 334.92,407.59 c -6.36,0 -12.72,0 -19.07,0 -1,0 -1.11,-0.36 -0.81,-1.23 1.1,-3.21 2.12,-6.44 3.21,-9.65 0.9,-2.66 1.87,-5.29 2.76,-8 1,-3.07 2,-6.17 3,-9.24 1.37,-4.11 2.79,-8.2 4.16,-12.31 1.19,-3.6 2.32,-7.21 3.53,-10.81 1,-3.1 2.17,-6.18 3.22,-9.29 1.19,-3.55 2.3,-7.13 3.49,-10.69 1,-3.15 2.17,-6.27 3.22,-9.42 1.05,-3.15 2,-6.11 3,-9.15 1,-3.04 2.17,-6.28 3.22,-9.43 1.05,-3.15 2,-6.27 3,-9.4 1,-3.13 2.12,-6.21 3.15,-9.33 0.89,-2.67 1.71,-5.38 2.6,-8.05 0.89,-2.67 1.87,-5.23 2.75,-7.87 1,-3.09 2,-6.2 3,-9.29 1,-3.09 2.15,-6.22 3.2,-9.33 q 1.31,-3.91 2.54,-7.84 a 1.39,1.39 0 0 1 1.56,-1.21 c 7.64,0 15.28,0 22.92,0.06 a 10.48,10.48 0 0 1 6.25,2.56 11.75,11.75 0 0 1 4.64,7.12 16.65,16.65 0 0 1 -0.18,6.25 79.15,79.15 0 0 1 -2.55,8.33 c -1.19,3.59 -2.47,7.14 -3.67,10.72 -1.2,3.58 -2.31,7.11 -3.5,10.65 -1.4,4.17 -2.85,8.33 -4.24,12.5 -1.17,3.5 -2.27,7 -3.45,10.54 -1.39,4.17 -2.84,8.32 -4.23,12.49 -1.16,3.47 -2.24,7 -3.4,10.43 -1.41,4.21 -2.88,8.4 -4.28,12.6 -1.18,3.51 -2.28,7 -3.45,10.54 -1.39,4.17 -2.84,8.31 -4.23,12.48 -1.14,3.43 -2.19,6.89 -3.34,10.32 -1.43,4.28 -2.94,8.53 -4.37,12.81 -1.12,3.35 -2.21,6.72 -3.22,10.11 -0.26,0.9 -0.73,1 -1.53,1 -6.32,0 -12.64,0 -19,0 z"
         transform="translate(-189.32,-203.09)"
         id="path19" />
      <path
         class="cls-1"
         d="M 387.87,407.59 H 369 c -1.47,0 -1.46,0 -1,-1.44 1.65,-5 3.26,-10.06 4.94,-15.07 1.19,-3.55 2.48,-7.05 3.68,-10.59 1.2,-3.54 2.3,-7.12 3.48,-10.68 0.74,-2.21 1.57,-4.39 2.3,-6.6 0.87,-2.63 1.64,-5.3 2.52,-7.93 1,-3.11 2.15,-6.19 3.19,-9.29 0.87,-2.58 1.68,-5.18 2.54,-7.76 0.93,-2.76 1.91,-5.49 2.84,-8.25 0.69,-2.06 1.3,-4.15 2,-6.22 0.7,-2.07 1.54,-4.38 2.26,-6.58 0.87,-2.66 1.68,-5.34 2.54,-8 0.66,-2 1.38,-4.05 2.06,-6.07 0.75,-2.25 1.49,-4.5 2.25,-6.74 0.89,-2.6 1.82,-5.19 2.7,-7.8 0.57,-1.66 1.07,-3.34 1.63,-5 0.74,-2.2 1.52,-4.38 2.26,-6.58 0.74,-2.2 1.35,-4.23 2,-6.33 0.65,-2.1 1.47,-4.43 2.21,-6.64 q 1.29,-3.93 2.59,-7.86 c 1,-3.07 2.07,-6.12 3.08,-9.2 a 1.14,1.14 0 0 1 1.3,-0.86 c 7.64,0 15.28,0 22.92,0 2.52,0 4.68,1.28 6.69,2.8 a 11.38,11.38 0 0 1 4.23,6.74 16.85,16.85 0 0 1 0,6.37 49.36,49.36 0 0 1 -2.19,6.8 c -0.77,2.27 -1.56,4.53 -2.31,6.8 -1.17,3.59 -2.29,7.18 -3.47,10.76 -0.88,2.65 -1.84,5.27 -2.73,7.91 -1,3.06 -2,6.13 -3,9.19 -0.75,2.24 -1.56,4.45 -2.3,6.68 -1.17,3.58 -2.29,7.17 -3.47,10.74 -0.72,2.16 -1.58,4.28 -2.3,6.44 -0.87,2.61 -1.63,5.26 -2.5,7.88 -1,3.15 -2.18,6.27 -3.22,9.42 -0.88,2.65 -1.66,5.33 -2.55,8 -1,3.08 -2.17,6.13 -3.22,9.2 -0.56,1.62 -1,3.27 -1.56,4.89 -0.75,2.23 -1.57,4.45 -2.31,6.69 -0.86,2.62 -1.63,5.26 -2.5,7.88 -1,3.16 -2.16,6.29 -3.21,9.44 -0.88,2.65 -1.68,5.33 -2.56,8 -0.88,2.67 -1.91,5.43 -2.8,8.16 -0.21,0.64 -0.52,0.74 -1.11,0.73 h -19.03 z"
         transform="translate(-189.32,-203.09)"
         id="path21" />
      <path
         class="cls-1"
         d="m 543.74,372.35 h -18.6 c -1.64,0 -1.67,-0.12 -1.12,-1.67 0.74,-2.11 1.36,-4.26 2.06,-6.38 q 1.9,-5.74 3.83,-11.47 c 1.28,-3.81 2.57,-7.62 3.84,-11.43 1.27,-3.81 2.57,-7.8 3.86,-11.69 1.29,-3.89 2.56,-7.76 3.85,-11.63 1.29,-3.87 2.55,-7.68 3.84,-11.52 1.12,-3.32 2.3,-6.63 3.41,-10 1.44,-4.33 2.84,-8.68 4.27,-13 0.63,-1.92 1.25,-3.84 1.95,-5.73 a 1.33,1.33 0 0 1 1,-0.54 c 1.31,-0.1 2.63,-0.12 4,-0.12 h 34 c 1.54,0 1.62,0.18 1.14,1.6 -1.08,3.14 -2.09,6.31 -3.15,9.46 -1.06,3.15 -2.16,6.23 -3.2,9.37 -0.88,2.65 -1.68,5.34 -2.57,8 -0.89,2.66 -1.86,5.2 -2.75,7.81 -0.71,2.06 -1.32,4.16 -2,6.23 -1.06,3.22 -2.19,6.41 -3.24,9.62 -0.88,2.68 -1.66,5.38 -2.56,8.05 -1.2,3.58 -2.51,7.12 -3.72,10.7 -1,3 -1.95,6 -2.95,9 -1.08,3.25 -2.2,6.49 -3.27,9.74 -0.55,1.66 -1,3.36 -1.6,5 -0.09,0.27 -0.66,0.5 -1,0.51 -2.16,0.05 -4.32,0 -6.48,0 z"
         transform="translate(-189.32,-203.09)"
         id="path23" />
      <path
         class="cls-1"
         d="m 585.84,245.85 h -18.59 c -1.51,0 -1.55,-0.19 -1,-1.68 0.77,-2.14 1.37,-4.34 2.08,-6.5 1.26,-3.82 2.56,-7.62 3.83,-11.44 1.27,-3.82 2.57,-7.69 3.84,-11.55 q 1.74,-5.28 3.44,-10.57 c 0.28,-0.86 0.88,-1 1.66,-1 h 9.95 27.83 c 0.93,0 1.42,-0.1 1,1.22 -1.75,4.93 -3.3,9.94 -5,14.91 -1.38,4.1 -2.86,8.17 -4.23,12.27 -1.19,3.56 -2.29,7.14 -3.44,10.71 -0.32,1 -0.61,2 -1,3 a 1.24,1.24 0 0 1 -0.81,0.56 7.26,7.26 0 0 1 -1.55,0.09 z"
         transform="translate(-189.32,-203.09)"
         id="path25" />
    </g>
  </g>
</svg>
